<?xml version="1.0" encoding="utf-8"?>
<!-- Generator: Adobe Illustrator 21.0.0, SVG Export Plug-In . SVG Version: 6.00 Build 0)  -->
<svg version="1.1" id="Capa_1" xmlns="http://www.w3.org/2000/svg" xmlns:xlink="http://www.w3.org/1999/xlink" x="0px" y="0px"
	 viewBox="0 0 512 512" style="enable-background:new 0 0 512 512;" xml:space="preserve">
<style type="text/css">
	.st0{fill:#1A1B26;}
	.st1{fill:#F3DC1D;}
	.st2{fill:#E8E4DB;}
</style>
<circle class="st0" cx="256" cy="256.1" r="256"/>
<path class="st1" d="M368.2,322.9c-55.4,27.2-122.5,4.1-149.3-51.6c-26-54.1-4-119.8,49.4-147.2c0.7-0.4,1.4-0.7,2.1-1.1
	c4.9-2.4,3.6-9.8-1.9-10.4c-26.2-2.8-53.5,1.7-78.8,14.3c-69.9,34.8-99.1,120.2-65.1,190.5c34.6,71.7,120.9,101.4,192.3,66.4
	c25.1-12.3,45-31.1,58.7-53.2c2.9-4.7-2.2-10.2-7.2-7.8C368.3,322.9,368.2,322.9,368.2,322.9z"/>
<g>
	<circle class="st2" cx="355.9" cy="100.9" r="8.9"/>
	<circle class="st2" cx="316.7" cy="182.9" r="8.9"/>
	<circle class="st2" cx="384.7" cy="414.4" r="8.9"/>
	<circle class="st2" cx="252.5" cy="39.8" r="8.9"/>
	<circle class="st2" cx="232.1" cy="356.4" r="8.9"/>
	<circle class="st2" cx="104.2" cy="374.6" r="8.9"/>
	<circle class="st2" cx="159.3" cy="447.7" r="8.9"/>
	<circle class="st2" cx="426.6" cy="296.5" r="8.9"/>
	<circle class="st2" cx="176.1" cy="190.8" r="8.9"/>
</g>
<path class="st1" d="M421.8,143.2c9.8-0.7,19.2-2.8,28-6.3c-8.8-3.5-18.1-5.6-28-6.3c-0.7-9.8-2.8-19.2-6.3-28
	c-3.5,8.8-5.6,18.1-6.3,28c-9.8,0.7-19.2,2.8-28,6.3c8.8,3.5,18.1,5.6,28,6.3c0.7,9.8,2.8,19.2,6.3,28
	C418.9,162.4,421.1,153,421.8,143.2z"/>
</svg>
